<?xml version="1.0" encoding="utf-8"?>
<!-- Generator: Adobe Illustrator 18.0.0, SVG Export Plug-In . SVG Version: 6.00 Build 0)  -->
<!DOCTYPE svg PUBLIC "-//W3C//DTD SVG 1.1//EN" "http://www.w3.org/Graphics/SVG/1.1/DTD/svg11.dtd">
<svg version="1.1" id="Layer_1" xmlns="http://www.w3.org/2000/svg" xmlns:xlink="http://www.w3.org/1999/xlink" x="0px" y="0px"
	 viewBox="21.3 371 569.8 49.9" enable-background="new 21.3 371 569.8 49.9" xml:space="preserve">
<g>
	<g>
		<path fill="#606060" d="M90.6,396l-13.9-25H26.6c-2.9,0-5.3,2.4-5.3,5.3v39.2c0,3,2.4,5.3,5.3,5.3h50.1L90.6,396z"/>
		<path fill="#BB0E3D" d="M89.2,373.6c-1-1.6-2.7-2.6-4.6-2.6h-4.1l14.1,25l-14.1,25h4.1c1.9,0,3.7-1,4.6-2.6l12.5-22.4L89.2,373.6z
			"/>
	</g>
	<g>
		<rect x="50.8" y="384.9" fill="#FFFFFF" width="3.7" height="22.2"/>
		<polygon fill="#FFFFFF" points="43.5,384.9 43.5,401.2 33.3,384.9 29.6,384.9 29.6,407.1 33.3,407.1 33.3,390.8 43.5,407.1 
			47.1,407.1 47.1,384.9 		"/>
		<polygon fill="#FFFFFF" points="72.1,384.9 72.1,394.2 61.9,394.2 61.9,384.9 58.2,384.9 58.2,407.1 61.9,407.1 61.9,397.8 
			72.1,397.8 72.1,407.1 75.8,407.1 75.8,384.9 		"/>
	</g>
</g>
<g>
	<g>
		<path fill="#BB0E3D" d="M121,378.4h2.3v10.3H121l-4.9-6.5v6.5h-2.3v-10.3h2.2l5.1,6.7V378.4z"/>
		<path fill="#BB0E3D" d="M133.2,388.8l-1-2.2h-4.3l-1,2.2h-2.5l4.5-10.3h2.2l4.5,10.3L133.2,388.8L133.2,388.8z M130.1,381.5
			l-1.3,3h2.6L130.1,381.5z"/>
		<path fill="#BB0E3D" d="M140.5,380.4v8.3h-2.3v-8.3h-2.9v-2h8.2v2H140.5z"/>
		<path fill="#BB0E3D" d="M145.1,378.4h2.3v10.3h-2.3V378.4z"/>
		<path fill="#BB0E3D" d="M158.6,387.3c-1,1-2.3,1.5-3.9,1.5s-2.8-0.5-3.9-1.5c-1-1-1.6-2.3-1.6-3.8s0.5-2.8,1.6-3.8
			c1-1,2.3-1.5,3.9-1.5s2.8,0.5,3.9,1.5c1,1,1.6,2.3,1.6,3.8S159.7,386.3,158.6,387.3z M157.8,383.5c0-0.9-0.3-1.7-0.9-2.4
			c-0.6-0.7-1.3-1-2.2-1c-0.9,0-1.6,0.3-2.2,1c-0.6,0.7-0.9,1.4-0.9,2.4c0,0.9,0.3,1.7,0.9,2.4c0.6,0.6,1.3,1,2.2,1
			c0.9,0,1.6-0.3,2.2-1C157.5,385.3,157.8,384.5,157.8,383.5z"/>
		<path fill="#BB0E3D" d="M169.4,378.4h2.3v10.3h-2.3l-4.9-6.5v6.5h-2.3v-10.3h2.2l5.1,6.7V378.4z"/>
		<path fill="#BB0E3D" d="M181.6,388.8l-1-2.2h-4.3l-1,2.2h-2.5l4.5-10.3h2.2l4.5,10.3L181.6,388.8L181.6,388.8z M178.5,381.5
			l-1.3,3h2.6L178.5,381.5z"/>
		<path fill="#BB0E3D" d="M185.3,388.8v-10.3h2.3v8.3h4.4v2.1L185.3,388.8L185.3,388.8z"/>
		<path fill="#BB0E3D" d="M202.3,386.7c1.1,0,2.1-0.4,2.8-1.3l1.5,1.5c-1.2,1.3-2.6,2-4.1,2c-1.6,0-2.9-0.5-3.9-1.5
			s-1.5-2.3-1.5-3.8c0-1.5,0.5-2.8,1.6-3.8c1.1-1,2.3-1.5,3.9-1.5c1.7,0,3.1,0.6,4.3,1.9l-1.4,1.6c-0.7-0.9-1.6-1.4-2.7-1.4
			c-0.9,0-1.6,0.3-2.2,0.9c-0.6,0.6-0.9,1.3-0.9,2.3s0.3,1.7,0.9,2.3C200.8,386.4,201.5,386.7,202.3,386.7z"/>
		<path fill="#BB0E3D" d="M215.7,388.8l-1-2.2h-4.3l-1,2.2H207l4.5-10.3h2.2l4.5,10.3L215.7,388.8L215.7,388.8z M212.6,381.5l-1.3,3
			h2.6L212.6,381.5z"/>
		<path fill="#BB0E3D" d="M226.6,378.4h2.3v10.3h-2.3l-4.9-6.5v6.5h-2.3v-10.3h2.2l5.1,6.7V378.4z"/>
		<path fill="#BB0E3D" d="M236.2,386.7c1.1,0,2.1-0.4,2.8-1.3l1.5,1.5c-1.2,1.3-2.6,2-4.1,2s-2.9-0.5-3.9-1.5s-1.5-2.3-1.5-3.8
			c0-1.5,0.5-2.8,1.6-3.8c1.1-1,2.3-1.5,3.9-1.5c1.7,0,3.1,0.6,4.3,1.9l-1.4,1.6c-0.7-0.9-1.6-1.4-2.7-1.4c-0.9,0-1.6,0.3-2.2,0.9
			c-0.6,0.6-0.9,1.3-0.9,2.3s0.3,1.7,0.9,2.3C234.6,386.4,235.3,386.7,236.2,386.7z"/>
		<path fill="#BB0E3D" d="M249.7,378.4v2.1h-5.1v2.1h4.6v2h-4.6v2.1h5.3v2h-7.6v-10.3H249.7z"/>
		<path fill="#BB0E3D" d="M260.3,381.9c0,1.7-0.7,2.7-2,3.2l2.6,3.7h-2.8l-2.3-3.3h-1.6v3.3h-2.3v-10.3h3.9c1.6,0,2.8,0.3,3.4,0.8
			C260,379.8,260.3,380.7,260.3,381.9z M257.5,383.1c0.3-0.3,0.4-0.7,0.4-1.2c0-0.6-0.1-0.9-0.4-1.1c-0.3-0.2-0.8-0.3-1.6-0.3h-1.7
			v3.1h1.7C256.7,383.5,257.2,383.4,257.5,383.1z"/>
		<path fill="#BB0E3D" d="M266.6,378.4h2.3v10.3h-2.3V378.4z"/>
		<path fill="#BB0E3D" d="M278.7,378.4h2.3v10.3h-2.3l-4.9-6.5v6.5h-2.3v-10.3h2.2l5.1,6.7V378.4z"/>
		<path fill="#BB0E3D" d="M285.9,380.5c-0.2,0.2-0.3,0.4-0.3,0.7s0.1,0.5,0.4,0.7c0.3,0.2,0.9,0.4,1.9,0.6s1.7,0.6,2.3,1.1
			c0.5,0.5,0.8,1.2,0.8,2.1s-0.3,1.7-1,2.3s-1.6,0.9-2.7,0.9c-1.6,0-3.1-0.6-4.4-1.8l1.4-1.7c1.1,1,2.1,1.5,3.1,1.5
			c0.4,0,0.8-0.1,1-0.3c0.2-0.2,0.4-0.4,0.4-0.7c0-0.3-0.1-0.6-0.4-0.7c-0.3-0.2-0.8-0.4-1.5-0.6c-1.2-0.3-2.1-0.7-2.6-1.1
			c-0.6-0.5-0.8-1.2-0.8-2.2s0.4-1.7,1.1-2.3c0.7-0.5,1.6-0.8,2.6-0.8c0.7,0,1.4,0.1,2.1,0.4s1.3,0.6,1.8,1l-1.2,1.7
			c-0.9-0.7-1.8-1-2.8-1C286.5,380.2,286.2,380.3,285.9,380.5z"/>
		<path fill="#BB0E3D" d="M297.2,380.4v8.3h-2.3v-8.3H292v-2h8.2v2H297.2z"/>
		<path fill="#BB0E3D" d="M301.9,378.4h2.3v10.3h-2.3V378.4z"/>
		<path fill="#BB0E3D" d="M311.1,380.4v8.3h-2.3v-8.3h-2.9v-2h8.2v2H311.1z"/>
		<path fill="#BB0E3D" d="M318.4,386.1c0.4,0.5,0.9,0.7,1.6,0.7c0.7,0,1.2-0.2,1.5-0.7c0.4-0.5,0.6-1.1,0.6-2v-5.7h2.3v5.8
			c0,1.5-0.4,2.6-1.2,3.5c-0.8,0.8-1.9,1.2-3.2,1.2c-1.3,0-2.4-0.4-3.2-1.2s-1.2-2-1.2-3.4v-5.8h2.3v5.7
			C317.9,385,318,385.6,318.4,386.1z"/>
		<path fill="#BB0E3D" d="M331.2,380.4v8.3h-2.3v-8.3h-2.9v-2h8.2v2H331.2z"/>
		<path fill="#BB0E3D" d="M343.3,378.4v2.1h-5.1v2.1h4.6v2h-4.6v2.1h5.3v2h-7.6v-10.3H343.3z"/>
	</g>
</g>
<g>
	<g>
		<path fill="#606060" d="M124.1,401.8c1.3,1.2,1.9,2.8,1.9,4.9s-0.6,3.8-1.9,5s-3.2,1.8-5.8,1.8h-4.6V400h4.8
			C120.9,400,122.8,400.6,124.1,401.8z M121.9,409.9c0.7-0.7,1.1-1.7,1.1-3c0-1.3-0.4-2.4-1.1-3.1c-0.7-0.7-1.9-1.1-3.4-1.1h-1.7
			v8.3h1.9C120,410.9,121.1,410.6,121.9,409.9z"/>
		<path fill="#606060" d="M128.5,401.8c-0.3-0.3-0.5-0.7-0.5-1.2c0-0.5,0.2-0.9,0.5-1.2c0.3-0.3,0.7-0.5,1.2-0.5s0.9,0.2,1.2,0.5
			c0.3,0.3,0.5,0.7,0.5,1.2c0,0.5-0.2,0.9-0.5,1.2c-0.3,0.3-0.7,0.5-1.2,0.5S128.8,402.1,128.5,401.8z M131.1,413.6h-2.9v-10.4h2.9
			V413.6z"/>
		<path fill="#606060" d="M136.7,413.6l-4.1-10.5h3l2.6,6.6l2.6-6.6h3l-4.1,10.5C139.7,413.6,136.7,413.6,136.7,413.6z"/>
		<path fill="#606060" d="M145.5,401.8c-0.3-0.3-0.5-0.7-0.5-1.2c0-0.5,0.2-0.9,0.5-1.2c0.3-0.3,0.7-0.5,1.2-0.5s0.9,0.2,1.2,0.5
			c0.3,0.3,0.5,0.7,0.5,1.2c0,0.5-0.2,0.9-0.5,1.2c-0.3,0.3-0.7,0.5-1.2,0.5S145.9,402.1,145.5,401.8z M148.2,413.6h-2.9v-10.4h2.9
			V413.6z"/>
		<path fill="#606060" d="M158.8,410.3c0,1-0.4,1.9-1.1,2.5s-1.7,0.9-2.9,0.9c-0.8,0-1.6-0.1-2.4-0.4c-0.8-0.3-1.6-0.7-2.3-1.2
			l1.3-1.8c1.1,0.8,2.2,1.3,3.5,1.3c0.4,0,0.7-0.1,0.9-0.2c0.2-0.1,0.3-0.3,0.3-0.6c0-0.2-0.2-0.5-0.5-0.7c-0.3-0.2-0.7-0.4-1.3-0.6
			c-0.6-0.2-1-0.3-1.3-0.5c-0.3-0.1-0.7-0.3-1-0.6c-0.8-0.5-1.2-1.2-1.2-2.2c0-1,0.4-1.8,1.2-2.4c0.8-0.6,1.8-0.9,3-0.9
			c1.2,0,2.5,0.4,3.7,1.2l-1.1,1.9c-0.9-0.6-1.8-0.9-2.7-0.9c-0.9,0-1.3,0.2-1.3,0.7c0,0.3,0.1,0.5,0.4,0.6c0.3,0.2,0.8,0.3,1.4,0.5
			c0.7,0.2,1.1,0.4,1.4,0.5c0.3,0.1,0.6,0.3,1,0.5C158.4,408.6,158.8,409.3,158.8,410.3z"/>
		<path fill="#606060" d="M161.3,401.8c-0.3-0.3-0.5-0.7-0.5-1.2c0-0.5,0.2-0.9,0.5-1.2c0.3-0.3,0.7-0.5,1.2-0.5s0.9,0.2,1.2,0.5
			c0.3,0.3,0.5,0.7,0.5,1.2c0,0.5-0.2,0.9-0.5,1.2c-0.3,0.3-0.7,0.5-1.2,0.5S161.6,402.1,161.3,401.8z M164,413.6H161v-10.4h2.9
			V413.6z"/>
		<path fill="#606060" d="M177.2,408.4c0,1.5-0.5,2.8-1.6,3.8c-1,1-2.4,1.6-4,1.6s-2.9-0.5-4-1.6c-1-1-1.6-2.3-1.6-3.8
			c0-1.5,0.5-2.8,1.6-3.8c1-1,2.4-1.6,4-1.6s2.9,0.5,4,1.6C176.6,405.6,177.2,406.8,177.2,408.4z M169,408.4c0,0.9,0.2,1.6,0.7,2.1
			c0.5,0.5,1.1,0.8,1.9,0.8s1.4-0.3,1.9-0.8c0.5-0.5,0.7-1.2,0.7-2.1c0-0.9-0.2-1.6-0.7-2.1s-1.1-0.8-1.9-0.8s-1.4,0.3-1.9,0.8
			C169.3,406.8,169,407.5,169,408.4z"/>
		<path fill="#606060" d="M182.2,407.8v5.8h-2.9v-10.4h2.9v1.2c0.9-0.9,1.9-1.3,3-1.3c1.1,0,2,0.4,2.8,1.2c0.7,0.8,1.1,1.8,1.1,3.1
			v6.3h-2.9v-5.9c0-1.6-0.6-2.4-1.8-2.4c-0.6,0-1.1,0.2-1.5,0.6C182.4,406.3,182.2,406.9,182.2,407.8z"/>
		<path fill="#606060" d="M207.3,408.4c0,1.5-0.5,2.8-1.6,3.8c-1,1-2.4,1.6-4,1.6s-2.9-0.5-4-1.6c-1-1-1.6-2.3-1.6-3.8
			c0-1.5,0.5-2.8,1.6-3.8c1-1,2.4-1.6,4-1.6s2.9,0.5,4,1.6C206.8,405.6,207.3,406.8,207.3,408.4z M199.2,408.4
			c0,0.9,0.2,1.6,0.7,2.1c0.5,0.5,1.1,0.8,1.9,0.8c0.8,0,1.4-0.3,1.9-0.8c0.5-0.5,0.7-1.2,0.7-2.1c0-0.9-0.2-1.6-0.7-2.1
			c-0.5-0.5-1.1-0.8-1.9-0.8c-0.8,0-1.4,0.3-1.9,0.8C199.4,406.8,199.2,407.5,199.2,408.4z"/>
		<path fill="#606060" d="M212.7,402.5v0.7h2.5v2.1h-2.5v8.3h-2.9v-8.3h-1.2v-2.1h1.2v-0.6c0-1.1,0.3-2,1-2.7c0.7-0.7,1.6-1,2.6-1
			c1,0,2,0.4,2.8,1.2l-1,2c-0.4-0.5-0.9-0.7-1.4-0.7c-0.3,0-0.5,0.1-0.7,0.3C212.8,401.8,212.7,402.1,212.7,402.5z"/>
		<path fill="#606060" d="M228.7,410.9c1.5,0,2.7-0.6,3.6-1.8l1.9,2c-1.5,1.7-3.4,2.6-5.4,2.6c-2.1,0-3.8-0.7-5.2-2
			c-1.4-1.3-2-3-2-5c0-2,0.7-3.7,2.1-5s3.1-2,5.1-2c2.2,0,4.1,0.8,5.6,2.5l-1.9,2.1c-1-1.2-2.1-1.8-3.6-1.8c-1.1,0-2.1,0.4-2.9,1.1
			c-0.8,0.7-1.2,1.7-1.2,3c0,1.3,0.4,2.3,1.1,3C226.7,410.5,227.6,410.9,228.7,410.9z"/>
		<path fill="#606060" d="M245.2,413.6h-2.7v-1.3c-0.8,0.9-1.7,1.4-2.8,1.4c-1.1,0-2-0.3-2.8-1c-0.8-0.6-1.1-1.5-1.1-2.6
			c0-1.1,0.4-1.9,1.2-2.4c0.8-0.5,1.8-0.8,3.2-0.8h2.2V407c0-1.1-0.6-1.7-1.8-1.7c-0.5,0-1,0.1-1.6,0.3c-0.6,0.2-1,0.4-1.4,0.7
			l-1.3-1.9c1.4-1,2.9-1.5,4.7-1.5c1.3,0,2.3,0.3,3.1,1c0.8,0.6,1.2,1.6,1.2,3L245.2,413.6L245.2,413.6z M242.2,409.6v-0.5h-1.8
			c-1.2,0-1.7,0.4-1.7,1.1c0,0.4,0.1,0.7,0.4,0.9c0.3,0.2,0.7,0.3,1.2,0.3s1-0.2,1.4-0.5C242,410.6,242.2,410.1,242.2,409.6z"/>
		<path fill="#606060" d="M250.7,407.8v5.8h-2.9v-10.4h2.9v1.2c0.9-0.9,1.9-1.3,3-1.3c1.1,0,2,0.4,2.8,1.2c0.7,0.8,1.1,1.8,1.1,3.1
			v6.3h-2.9v-5.9c0-1.6-0.6-2.4-1.8-2.4c-0.6,0-1.1,0.2-1.5,0.6C251,406.3,250.7,406.9,250.7,407.8z"/>
		<path fill="#606060" d="M265.2,411.2c1,0,1.8-0.5,2.6-1.5l1.7,1.9c-1.3,1.4-2.8,2.1-4.4,2.1s-2.9-0.5-4-1.5s-1.6-2.3-1.6-3.9
			s0.5-2.9,1.6-3.9s2.4-1.5,3.9-1.5c0.8,0,1.5,0.2,2.3,0.5c0.8,0.3,1.4,0.8,2,1.4l-1.5,2c-0.3-0.4-0.7-0.7-1.2-0.9
			c-0.5-0.2-1-0.3-1.4-0.3c-0.8,0-1.4,0.2-2,0.7c-0.6,0.5-0.8,1.2-0.8,2.1c0,0.9,0.3,1.6,0.8,2.1S264.5,411.2,265.2,411.2z"/>
		<path fill="#606060" d="M280.6,412.1c-1.2,1.1-2.6,1.7-4.1,1.7s-2.9-0.5-3.9-1.5c-1-1-1.6-2.3-1.6-3.9s0.5-3,1.6-3.9
			c1.1-1,2.3-1.5,3.7-1.5s2.7,0.4,3.7,1.3c1,0.9,1.5,2.1,1.5,3.6v1.6h-7.6c0.1,0.6,0.4,1,0.9,1.4c0.5,0.4,1.1,0.5,1.7,0.5
			c1,0,1.9-0.3,2.5-1L280.6,412.1z M277.8,405.9c-0.4-0.3-0.9-0.5-1.5-0.5c-0.6,0-1.1,0.2-1.6,0.5c-0.5,0.3-0.8,0.8-0.8,1.4h4.6
			C278.4,406.7,278.2,406.2,277.8,405.9z"/>
		<path fill="#606060" d="M289,405.7c-0.9,0-1.5,0.3-1.9,0.9c-0.4,0.6-0.6,1.4-0.6,2.4v4.5h-2.9v-10.4h2.9v1.4
			c0.4-0.4,0.8-0.8,1.4-1.1c0.6-0.3,1.1-0.5,1.7-0.5l0,2.7L289,405.7L289,405.7z"/>
		<path fill="#606060" d="M303.1,410.9c1.5,0,2.7-0.6,3.6-1.8l1.9,2c-1.5,1.7-3.4,2.6-5.4,2.6s-3.8-0.7-5.2-2c-1.4-1.3-2-3-2-5
			c0-2,0.7-3.7,2.1-5s3.1-2,5.1-2c2.2,0,4.1,0.8,5.6,2.5l-1.9,2.1c-1-1.2-2.1-1.8-3.6-1.8c-1.1,0-2.1,0.4-2.9,1.1
			c-0.8,0.7-1.2,1.7-1.2,3c0,1.3,0.4,2.3,1.1,3C301.1,410.5,302.1,410.9,303.1,410.9z"/>
		<path fill="#606060" d="M320.9,408.4c0,1.5-0.5,2.8-1.6,3.8c-1,1-2.4,1.6-4,1.6s-2.9-0.5-4-1.6c-1-1-1.6-2.3-1.6-3.8
			c0-1.5,0.5-2.8,1.6-3.8c1-1,2.4-1.6,4-1.6s2.9,0.5,4,1.6C320.4,405.6,320.9,406.8,320.9,408.4z M312.8,408.4
			c0,0.9,0.2,1.6,0.7,2.1c0.5,0.5,1.1,0.8,1.9,0.8s1.4-0.3,1.9-0.8c0.5-0.5,0.7-1.2,0.7-2.1c0-0.9-0.2-1.6-0.7-2.1s-1.1-0.8-1.9-0.8
			s-1.4,0.3-1.9,0.8C313,406.8,312.8,407.5,312.8,408.4z"/>
		<path fill="#606060" d="M325.9,407.8v5.8H323v-10.4h2.9v1.2c0.9-0.9,1.9-1.3,3-1.3c1.1,0,2,0.4,2.8,1.2c0.7,0.8,1.1,1.8,1.1,3.1
			v6.3h-2.9v-5.9c0-1.6-0.6-2.4-1.8-2.4c-0.6,0-1.1,0.2-1.5,0.6C326.2,406.3,325.9,406.9,325.9,407.8z"/>
		<path fill="#606060" d="M338.8,405.2v4.7c0,0.4,0.1,0.7,0.3,0.9c0.2,0.2,0.5,0.3,0.7,0.3c0.5,0,1-0.2,1.4-0.7l1.1,2
			c-0.9,0.8-1.9,1.2-2.9,1.2c-1,0-1.9-0.3-2.5-1c-0.7-0.7-1-1.6-1-2.7v-4.8h-1.2v-2.1h1.2V400h2.9v3.1h2.5v2.1H338.8z"/>
		<path fill="#606060" d="M349.3,405.7c-0.9,0-1.5,0.3-1.9,0.9c-0.4,0.6-0.6,1.4-0.6,2.4v4.5h-2.9v-10.4h2.9v1.4
			c0.4-0.4,0.8-0.8,1.4-1.1c0.6-0.3,1.1-0.5,1.7-0.5l0,2.7L349.3,405.7L349.3,405.7z"/>
		<path fill="#606060" d="M362.1,408.4c0,1.5-0.5,2.8-1.6,3.8c-1,1-2.4,1.6-4,1.6s-2.9-0.5-4-1.6c-1-1-1.6-2.3-1.6-3.8
			c0-1.5,0.5-2.8,1.6-3.8c1-1,2.4-1.6,4-1.6s2.9,0.5,4,1.6C361.6,405.6,362.1,406.8,362.1,408.4z M354,408.4c0,0.9,0.2,1.6,0.7,2.1
			c0.5,0.5,1.1,0.8,1.9,0.8s1.4-0.3,1.9-0.8c0.5-0.5,0.7-1.2,0.7-2.1c0-0.9-0.2-1.6-0.7-2.1c-0.5-0.5-1.1-0.8-1.9-0.8
			s-1.4,0.3-1.9,0.8C354.2,406.8,354,407.5,354,408.4z"/>
		<path fill="#606060" d="M367.2,413.6h-2.9v-14.4h2.9V413.6z"/>
		<path fill="#606060" d="M383.3,412.4c-1.1,0.9-2.3,1.3-3.8,1.3c-1.4,0-2.6-0.4-3.5-1.1s-1.4-1.7-1.4-3c0-1.4,1-2.7,2.9-3.8
			c-0.4-0.5-0.7-1-0.9-1.4c-0.2-0.4-0.3-0.9-0.3-1.4c0-1.1,0.4-1.9,1.2-2.5c0.8-0.6,1.7-0.9,2.8-0.9c1.1,0,2,0.3,2.8,0.8
			c0.8,0.6,1.2,1.3,1.2,2.4c0,1.3-0.9,2.4-2.8,3.5c0.7,0.9,1.3,1.6,1.6,2c0.3-0.6,0.6-1.2,0.7-1.9l2.3,1.6c-0.3,0.8-0.7,1.6-1.1,2.3
			l1.9,1.9l-1.9,1.8L383.3,412.4z M378,410.9c0.4,0.3,0.9,0.4,1.5,0.4c0.6,0,1.2-0.3,1.9-0.9c-0.9-1-1.8-1.9-2.4-2.7
			c-1,0.6-1.5,1.3-1.5,2C377.5,410.2,377.7,410.6,378,410.9z M380.2,402c-0.3,0-0.5,0.1-0.8,0.3c-0.2,0.2-0.3,0.5-0.3,0.8
			s0.3,0.8,0.8,1.5c1-0.5,1.5-1,1.5-1.5c0-0.4-0.1-0.7-0.3-0.9C380.8,402.1,380.5,402,380.2,402z"/>
		<path fill="#606060" d="M403.4,401.2c1,0.8,1.4,2.1,1.4,3.7c0,1.7-0.5,2.9-1.5,3.7c-1,0.8-2.5,1.2-4.5,1.2h-1.8v3.8h-3V400h4.8
			C400.9,400,402.4,400.4,403.4,401.2z M401.2,406.6c0.4-0.4,0.5-1,0.5-1.8s-0.2-1.3-0.7-1.7c-0.5-0.3-1.2-0.5-2.2-0.5h-1.7v4.6h2
			C400.1,407.2,400.8,407,401.2,406.6z"/>
		<path fill="#606060" d="M417.2,408.4c0,1.5-0.5,2.8-1.6,3.8s-2.4,1.6-4,1.6s-2.9-0.5-4-1.6c-1-1-1.6-2.3-1.6-3.8
			c0-1.5,0.5-2.8,1.6-3.8c1-1,2.4-1.6,4-1.6s2.9,0.5,4,1.6C416.7,405.6,417.2,406.8,417.2,408.4z M409.1,408.4
			c0,0.9,0.2,1.6,0.7,2.1c0.5,0.5,1.1,0.8,1.9,0.8c0.8,0,1.4-0.3,1.9-0.8c0.5-0.5,0.7-1.2,0.7-2.1c0-0.9-0.2-1.6-0.7-2.1
			c-0.5-0.5-1.1-0.8-1.9-0.8c-0.8,0-1.4,0.3-1.9,0.8C409.3,406.8,409.1,407.5,409.1,408.4z"/>
		<path fill="#606060" d="M425.4,403c1.2,0,2.3,0.5,3.3,1.5c1,1,1.4,2.3,1.4,3.8c0,1.5-0.5,2.8-1.4,3.9c-1,1-2.1,1.6-3.3,1.6
			s-2.3-0.5-3.1-1.5v5.1h-2.9v-14.2h2.9v1.2C423.2,403.4,424.2,403,425.4,403z M422.2,408.4c0,0.8,0.2,1.5,0.7,2.1
			c0.5,0.5,1,0.8,1.7,0.8c0.7,0,1.3-0.3,1.8-0.8c0.5-0.5,0.8-1.2,0.8-2.1s-0.2-1.5-0.7-2.1c-0.5-0.6-1.1-0.9-1.8-0.9
			c-0.7,0-1.3,0.3-1.7,0.8C422.5,406.8,422.2,407.5,422.2,408.4z"/>
		<path fill="#606060" d="M439,408.8v-5.6h2.9v10.4H439v-1.4c-0.7,1-1.7,1.5-2.8,1.5c-1.1,0-2.1-0.4-2.9-1.1
			c-0.8-0.7-1.2-1.8-1.2-3.2v-6.3h2.9v5.7c0,1.6,0.6,2.4,1.8,2.4c0.6,0,1.1-0.2,1.5-0.6C438.8,410.2,439,409.6,439,408.8z"/>
		<path fill="#606060" d="M447.6,413.6h-2.9v-14.4h2.9V413.6z"/>
		<path fill="#606060" d="M459.3,413.6h-2.7v-1.3c-0.8,0.9-1.7,1.4-2.8,1.4s-2-0.3-2.8-1c-0.8-0.6-1.1-1.5-1.1-2.6
			c0-1.1,0.4-1.9,1.2-2.4c0.8-0.5,1.8-0.8,3.2-0.8h2.2V407c0-1.1-0.6-1.7-1.8-1.7c-0.5,0-1,0.1-1.6,0.3c-0.6,0.2-1,0.4-1.4,0.7
			l-1.3-1.9c1.4-1,2.9-1.5,4.7-1.5c1.3,0,2.3,0.3,3.1,1c0.8,0.6,1.2,1.6,1.2,3L459.3,413.6L459.3,413.6z M456.3,409.6v-0.5h-1.8
			c-1.2,0-1.7,0.4-1.7,1.1c0,0.4,0.1,0.7,0.4,0.9c0.3,0.2,0.7,0.3,1.2,0.3s1-0.2,1.4-0.5C456.1,410.6,456.3,410.1,456.3,409.6z"/>
		<path fill="#606060" d="M465.3,405.2v4.7c0,0.4,0.1,0.7,0.3,0.9s0.5,0.3,0.7,0.3c0.5,0,1-0.2,1.4-0.7l1.1,2
			c-0.9,0.8-1.9,1.2-2.9,1.2c-1,0-1.9-0.3-2.5-1s-1-1.6-1-2.7v-4.8h-1.2v-2.1h1.2V400h2.9v3.1h2.5v2.1H465.3z"/>
		<path fill="#606060" d="M470.6,401.8c-0.3-0.3-0.5-0.7-0.5-1.2c0-0.5,0.2-0.9,0.5-1.2c0.3-0.3,0.7-0.5,1.2-0.5s0.9,0.2,1.2,0.5
			c0.3,0.3,0.5,0.7,0.5,1.2c0,0.5-0.2,0.9-0.5,1.2c-0.3,0.3-0.7,0.5-1.2,0.5C471.3,402.3,470.9,402.1,470.6,401.8z M473.3,413.6
			h-2.9v-10.4h2.9V413.6z"/>
		<path fill="#606060" d="M486.5,408.4c0,1.5-0.5,2.8-1.6,3.8c-1,1-2.4,1.6-4,1.6s-2.9-0.5-4-1.6c-1-1-1.6-2.3-1.6-3.8
			c0-1.5,0.5-2.8,1.6-3.8c1-1,2.4-1.6,4-1.6s2.9,0.5,4,1.6C485.9,405.6,486.5,406.8,486.5,408.4z M478.3,408.4
			c0,0.9,0.2,1.6,0.7,2.1c0.5,0.5,1.1,0.8,1.9,0.8c0.8,0,1.4-0.3,1.9-0.8c0.5-0.5,0.7-1.2,0.7-2.1c0-0.9-0.2-1.6-0.7-2.1
			c-0.5-0.5-1.1-0.8-1.9-0.8c-0.8,0-1.4,0.3-1.9,0.8C478.6,406.8,478.3,407.5,478.3,408.4z"/>
		<path fill="#606060" d="M491.5,407.8v5.8h-2.9v-10.4h2.9v1.2c0.9-0.9,1.9-1.3,3-1.3c1.1,0,2,0.4,2.8,1.2c0.7,0.8,1.1,1.8,1.1,3.1
			v6.3h-2.9v-5.9c0-1.6-0.6-2.4-1.8-2.4c-0.6,0-1.1,0.2-1.5,0.6C491.7,406.3,491.5,406.9,491.5,407.8z"/>
		<path fill="#606060" d="M509.6,402.7c-0.3,0.2-0.4,0.6-0.4,1c0,0.4,0.2,0.7,0.5,0.9c0.4,0.2,1.2,0.5,2.5,0.8
			c1.3,0.3,2.3,0.8,3,1.4c0.7,0.6,1.1,1.6,1.1,2.8c0,1.2-0.5,2.2-1.4,3c-0.9,0.8-2.1,1.1-3.6,1.1c-2.1,0-4.1-0.8-5.8-2.4l1.8-2.2
			c1.5,1.3,2.8,1.9,4.1,1.9c0.6,0,1-0.1,1.3-0.4c0.3-0.2,0.5-0.6,0.5-1c0-0.4-0.2-0.7-0.5-1c-0.3-0.2-1-0.5-2-0.7
			c-1.6-0.4-2.7-0.9-3.5-1.5c-0.7-0.6-1.1-1.5-1.1-2.8c0-1.3,0.5-2.3,1.4-3c0.9-0.7,2.1-1,3.5-1c0.9,0,1.8,0.2,2.7,0.5
			c0.9,0.3,1.7,0.8,2.4,1.3l-1.5,2.2c-1.2-0.9-2.4-1.3-3.6-1.3C510.3,402.4,509.9,402.5,509.6,402.7z"/>
		<path fill="#606060" d="M523.5,411.2c1,0,1.8-0.5,2.6-1.5l1.7,1.9c-1.3,1.4-2.8,2.1-4.4,2.1c-1.6,0-2.9-0.5-4-1.5
			s-1.6-2.3-1.6-3.9s0.5-2.9,1.6-3.9c1.1-1,2.4-1.5,3.9-1.5c0.8,0,1.5,0.2,2.3,0.5c0.8,0.3,1.4,0.8,2,1.4l-1.5,2
			c-0.3-0.4-0.7-0.7-1.2-0.9c-0.5-0.2-1-0.3-1.4-0.3c-0.8,0-1.4,0.2-2,0.7c-0.6,0.5-0.8,1.2-0.8,2.1c0,0.9,0.3,1.6,0.8,2.1
			C522.1,410.9,522.8,411.2,523.5,411.2z"/>
		<path fill="#606060" d="M530.1,401.8c-0.3-0.3-0.5-0.7-0.5-1.2c0-0.5,0.2-0.9,0.5-1.2c0.3-0.3,0.7-0.5,1.2-0.5s0.9,0.2,1.2,0.5
			c0.3,0.3,0.5,0.7,0.5,1.2c0,0.5-0.2,0.9-0.5,1.2c-0.3,0.3-0.7,0.5-1.2,0.5C530.8,402.3,530.4,402.1,530.1,401.8z M532.7,413.6
			h-2.9v-10.4h2.9V413.6z"/>
		<path fill="#606060" d="M544.5,412.1c-1.2,1.1-2.6,1.7-4.1,1.7c-1.6,0-2.9-0.5-3.9-1.5c-1-1-1.6-2.3-1.6-3.9s0.5-3,1.6-3.9
			c1.1-1,2.3-1.5,3.7-1.5c1.4,0,2.7,0.4,3.7,1.3c1,0.9,1.5,2.1,1.5,3.6v1.6h-7.6c0.1,0.6,0.4,1,0.9,1.4c0.5,0.4,1.1,0.5,1.7,0.5
			c1,0,1.9-0.3,2.5-1L544.5,412.1z M541.7,405.9c-0.4-0.3-0.9-0.5-1.5-0.5c-0.6,0-1.1,0.2-1.6,0.5c-0.5,0.3-0.8,0.8-0.8,1.4h4.6
			C542.4,406.7,542.1,406.2,541.7,405.9z"/>
		<path fill="#606060" d="M550.4,407.8v5.8h-2.9v-10.4h2.9v1.2c0.9-0.9,1.9-1.3,3-1.3c1.1,0,2,0.4,2.8,1.2c0.7,0.8,1.1,1.8,1.1,3.1
			v6.3h-2.9v-5.9c0-1.6-0.6-2.4-1.8-2.4c-0.6,0-1.1,0.2-1.5,0.6C550.6,406.3,550.4,406.9,550.4,407.8z"/>
		<path fill="#606060" d="M564.9,411.2c1,0,1.8-0.5,2.6-1.5l1.7,1.9c-1.3,1.4-2.8,2.1-4.4,2.1c-1.6,0-2.9-0.5-4-1.5
			c-1.1-1-1.6-2.3-1.6-3.9s0.5-2.9,1.6-3.9c1.1-1,2.4-1.5,3.9-1.5c0.8,0,1.5,0.2,2.3,0.5c0.8,0.3,1.4,0.8,2,1.4l-1.5,2
			c-0.3-0.4-0.7-0.7-1.2-0.9c-0.5-0.2-1-0.3-1.4-0.3c-0.8,0-1.4,0.2-2,0.7s-0.8,1.2-0.8,2.1c0,0.9,0.3,1.6,0.8,2.1
			S564.2,411.2,564.9,411.2z"/>
		<path fill="#606060" d="M580.2,412.1c-1.2,1.1-2.6,1.7-4.1,1.7c-1.6,0-2.9-0.5-3.9-1.5c-1-1-1.6-2.3-1.6-3.9s0.5-3,1.6-3.9
			c1.1-1,2.3-1.5,3.7-1.5c1.4,0,2.7,0.4,3.7,1.3c1,0.9,1.5,2.1,1.5,3.6v1.6h-7.6c0.1,0.6,0.4,1,0.9,1.4c0.5,0.4,1.1,0.5,1.7,0.5
			c1,0,1.9-0.3,2.5-1L580.2,412.1z M577.4,405.9c-0.4-0.3-0.9-0.5-1.5-0.5c-0.6,0-1.1,0.2-1.6,0.5c-0.5,0.3-0.8,0.8-0.8,1.4h4.6
			C578.1,406.7,577.8,406.2,577.4,405.9z"/>
		<path fill="#606060" d="M591.1,410.3c0,1-0.4,1.9-1.1,2.5c-0.8,0.6-1.7,0.9-2.9,0.9c-0.8,0-1.6-0.1-2.4-0.4
			c-0.8-0.3-1.6-0.7-2.3-1.2l1.3-1.8c1.1,0.8,2.2,1.3,3.5,1.3c0.4,0,0.7-0.1,0.9-0.2c0.2-0.1,0.3-0.3,0.3-0.6c0-0.2-0.2-0.5-0.5-0.7
			c-0.3-0.2-0.7-0.4-1.3-0.6c-0.6-0.2-1-0.3-1.3-0.5c-0.3-0.1-0.6-0.3-1-0.6c-0.8-0.5-1.2-1.2-1.2-2.2c0-1,0.4-1.8,1.2-2.4
			c0.8-0.6,1.8-0.9,3-0.9s2.5,0.4,3.7,1.2l-1.1,1.9c-0.9-0.6-1.8-0.9-2.7-0.9c-0.9,0-1.3,0.2-1.3,0.7c0,0.3,0.1,0.5,0.4,0.6
			c0.3,0.2,0.8,0.3,1.4,0.5c0.7,0.2,1.1,0.4,1.4,0.5c0.3,0.1,0.6,0.3,1,0.5C590.7,408.6,591.1,409.3,591.1,410.3z"/>
	</g>
</g>
</svg>
